<svg id="图层_1" data-name="图层 1" xmlns="http://www.w3.org/2000/svg" xmlns:xlink="http://www.w3.org/1999/xlink" viewBox="0 0 1000 1000"><defs><style>.cls-1{fill:url(#未命名的渐变_204);}.cls-2{fill:url(#未命名的渐变_204-2);}.cls-3{fill:url(#未命名的渐变_204-3);}.cls-4{fill:url(#未命名的渐变_204-4);}.cls-5{fill:url(#未命名的渐变_1037);}.cls-6{fill:url(#未命名的渐变_1037-2);}.cls-7{fill:url(#未命名的渐变_1037-3);}.cls-8{fill:url(#未命名的渐变_1037-4);}.cls-9{fill:url(#未命名的渐变_1037-5);}.cls-10{fill:url(#未命名的渐变_1037-6);}.cls-11{fill:url(#未命名的渐变_1037-7);}.cls-12{fill:url(#未命名的渐变_1037-8);}.cls-13{fill:url(#未命名的渐变_1037-9);}.cls-14{fill:url(#未命名的渐变_204-5);}.cls-15{fill:#fff;}</style><linearGradient id="未命名的渐变_204" y1="500" x2="1000" y2="500" gradientUnits="userSpaceOnUse"><stop offset="0" stop-color="#07cbfb"/><stop offset="1" stop-color="#8efd9f"/></linearGradient><linearGradient id="未命名的渐变_204-2" x1="146.23" y1="391.93" x2="323.11" y2="391.93" xlink:href="#未命名的渐变_204"/><linearGradient id="未命名的渐变_204-3" x1="289.01" y1="391.93" x2="686.42" y2="391.93" xlink:href="#未命名的渐变_204"/><linearGradient id="未命名的渐变_204-4" x1="632.67" y1="391.93" x2="853.77" y2="391.93" xlink:href="#未命名的渐变_204"/><linearGradient id="未命名的渐变_1037" x1="146.61" y1="683.39" x2="169.8" y2="683.39" gradientUnits="userSpaceOnUse"><stop offset="0" stop-color="#2af598"/><stop offset="0.04" stop-color="#28f19d"/><stop offset="0.48" stop-color="#12c4d1"/><stop offset="0.82" stop-color="#05a8f1"/><stop offset="1" stop-color="#009efd"/></linearGradient><linearGradient id="未命名的渐变_1037-2" x1="192.67" y1="694.65" x2="280.15" y2="694.65" xlink:href="#未命名的渐变_1037"/><linearGradient id="未命名的渐变_1037-3" x1="285.96" y1="698.13" x2="328.04" y2="698.13" xlink:href="#未命名的渐变_1037"/><linearGradient id="未命名的渐变_1037-4" x1="342.29" y1="695.32" x2="433.58" y2="695.32" xlink:href="#未命名的渐变_1037"/><linearGradient id="未命名的渐变_1037-5" x1="444.52" y1="695.32" x2="533.16" y2="695.32" xlink:href="#未命名的渐变_1037"/><linearGradient id="未命名的渐变_1037-6" x1="542.94" y1="683.97" x2="597.78" y2="683.97" xlink:href="#未命名的渐变_1037"/><linearGradient id="未命名的渐变_1037-7" x1="612.03" y1="676.26" x2="640.53" y2="676.26" xlink:href="#未命名的渐变_1037"/><linearGradient id="未命名的渐变_1037-8" x1="654.79" y1="695.32" x2="749.22" y2="695.32" xlink:href="#未命名的渐变_1037"/><linearGradient id="未命名的渐变_1037-9" x1="766.29" y1="694.65" x2="853.77" y2="694.65" xlink:href="#未命名的渐变_1037"/><linearGradient id="未命名的渐变_204-5" x1="146.61" y1="698.13" x2="853.77" y2="698.13" xlink:href="#未命名的渐变_204"/></defs><rect class="cls-1" width="1000" height="1000" rx="150"/><path class="cls-2" d="M298.55,524.6a19.65,19.65,0,0,0-19.66,19.65v24.57H146.23a44.22,44.22,0,0,1,44.22-44.22h22.11V259.27H146.23a44.22,44.22,0,0,1,44.22-44.22H323.11a44.22,44.22,0,0,1-44.22,44.22H256.78V524.6Z" transform="translate(0 0)"/><path class="cls-3" d="M686.42,215.05a19.65,19.65,0,0,0-19.66,19.65v24.57H636.94a19.69,19.69,0,0,0-19.06,14.89L599.5,347.71l-11.06,44.22L546.09,561.4a9.78,9.78,0,0,1-9.53,7.42H507.67a9.79,9.79,0,0,1-9.54-7.42l-59.7-238.84a4.91,4.91,0,0,0-9.53,0L371.07,553.93A19.69,19.69,0,0,1,352,568.82H289V544.25a19.65,19.65,0,0,1,19.66-19.65h10.17a19.69,19.69,0,0,0,19.06-14.89l71.79-287.24a9.78,9.78,0,0,1,9.53-7.42h28.89a9.78,9.78,0,0,1,9.53,7.42l32.24,129L500,391.93l17.34,69.38a4.92,4.92,0,0,0,9.54,0l17.34-69.38,11.06-44.22,29.43-117.77a19.69,19.69,0,0,1,19.06-14.89Z" transform="translate(0 0)"/><path class="cls-4" d="M853.77,215.05a44.22,44.22,0,0,1-44.22,44.22H765.33v289.9a19.64,19.64,0,0,1-19.65,19.65h-113a44.22,44.22,0,0,1,44.22-44.22h24.56A19.66,19.66,0,0,0,721.11,505V259.27H676.89V234.7a19.64,19.64,0,0,1,19.65-19.65Z" transform="translate(0 0)"/><path class="cls-5" d="M146.61,625.56H169.8V741.21H146.61Z" transform="translate(0 0)"/><path class="cls-6" d="M257,690.51c0-14.75-8.12-22.7-20.38-22.7-12.59,0-20.71,8-20.71,22.7v50.7h-23.2V649.42h23.2v11.43c6-7.78,15.9-12.76,27.67-12.76,21.37,0,36.61,13.92,36.61,39.27v53.85H257Z" transform="translate(0 0)"/><path class="cls-7" d="M325.39,649.42V756.29C325.39,777.5,314,785,296.23,785H286V765.24h6.62c7.13,0,9.61-2.65,9.61-8.79v-107ZM299.54,624.9c0-7.62,6-13.59,14.42-13.59,8.12,0,14.08,6,14.08,13.59s-6,13.59-14.08,13.59C305.51,638.49,299.54,632.52,299.54,624.9Z" transform="translate(0 0)"/><path class="cls-8" d="M388.35,742.7c-26.67,0-46.06-18.55-46.06-47.38,0-29,18.89-47.39,46.06-47.39,26.51,0,45.23,18.06,45.23,45.4a53.81,53.81,0,0,1-.66,8.94h-67.1c1.16,13.59,10.44,21.21,22,21.21,9.94,0,15.4-5,18.38-11.1h25C426.29,729.28,411.05,742.7,388.35,742.7ZM366,686.7h43.57c-.33-12.1-9.94-19.72-21.87-19.72C376.59,667,367.81,674.11,366,686.7Z" transform="translate(0 0)"/><path class="cls-9" d="M489.92,647.93c22.87,0,38.28,11.93,43.24,32.47h-25c-2.66-7.78-8.78-12.75-18.4-12.75-12.92,0-21.53,9.77-21.53,27.67s8.61,27.5,21.53,27.5c9.62,0,15.58-4.31,18.4-12.59h25c-5,19.55-20.37,32.47-43.24,32.47-26.51,0-45.4-18.55-45.4-47.38S463.41,647.93,489.92,647.93Z" transform="translate(0 0)"/><path class="cls-10" d="M553.88,668.47H542.94V649.42h10.94v-22.7h23.36v22.7h20.54v19.05H577.24v44.41c0,6.13,2.49,8.78,9.77,8.78h10.77v19.55H583.21c-17.57,0-29.33-7.45-29.33-28.5Z" transform="translate(0 0)"/><path class="cls-11" d="M612,624.9c0-7.62,6-13.59,14.25-13.59,8.12,0,14.25,6,14.25,13.59s-6.13,13.59-14.25,13.59C618,638.49,612,632.52,612,624.9Zm2.49,24.52h23.19v91.79H614.52Z" transform="translate(0 0)"/><path class="cls-12" d="M701.34,742.7c-26.51,0-46.55-18.55-46.55-47.38,0-29,20.71-47.39,47.22-47.39s47.21,18.39,47.21,47.39C749.22,724.15,728,742.7,701.34,742.7Zm0-20.21c12.26,0,24-9,24-27.17,0-18.4-11.44-27.18-23.7-27.18s-23.36,8.78-23.36,27.18C678.31,713.54,688.92,722.49,701.34,722.49Z" transform="translate(0 0)"/><path class="cls-13" d="M830.58,690.51c0-14.75-8.12-22.7-20.38-22.7-12.59,0-20.71,8-20.71,22.7v50.7h-23.2V649.42h23.2v11.43c6-7.78,15.9-12.76,27.67-12.76,21.37,0,36.61,13.92,36.61,39.27v53.85H830.58Z" transform="translate(0 0)"/><path class="cls-14" d="M146.61,625.56H169.8V741.21H146.61Z" transform="translate(0 0)"/><path class="cls-14" d="M257,690.51c0-14.75-8.12-22.7-20.38-22.7-12.59,0-20.71,8-20.71,22.7v50.7h-23.2V649.42h23.2v11.43c6-7.78,15.9-12.76,27.67-12.76,21.37,0,36.61,13.92,36.61,39.27v53.85H257Z" transform="translate(0 0)"/><path class="cls-14" d="M325.39,649.42V756.29C325.39,777.5,314,785,296.23,785H286V765.24h6.62c7.13,0,9.61-2.65,9.61-8.79v-107ZM299.54,624.9c0-7.62,6-13.59,14.42-13.59,8.12,0,14.08,6,14.08,13.59s-6,13.59-14.08,13.59C305.51,638.49,299.54,632.52,299.54,624.9Z" transform="translate(0 0)"/><path class="cls-14" d="M388.35,742.7c-26.67,0-46.06-18.55-46.06-47.38,0-29,18.89-47.39,46.06-47.39,26.51,0,45.23,18.06,45.23,45.4a53.81,53.81,0,0,1-.66,8.94h-67.1c1.16,13.59,10.44,21.21,22,21.21,9.94,0,15.4-5,18.38-11.1h25C426.29,729.28,411.05,742.7,388.35,742.7ZM366,686.7h43.57c-.33-12.1-9.94-19.72-21.87-19.72C376.59,667,367.81,674.11,366,686.7Z" transform="translate(0 0)"/><path class="cls-14" d="M489.92,647.93c22.87,0,38.28,11.93,43.24,32.47h-25c-2.66-7.78-8.78-12.75-18.4-12.75-12.92,0-21.53,9.77-21.53,27.67s8.61,27.5,21.53,27.5c9.62,0,15.58-4.31,18.4-12.59h25c-5,19.55-20.37,32.47-43.24,32.47-26.51,0-45.4-18.55-45.4-47.38S463.41,647.93,489.92,647.93Z" transform="translate(0 0)"/><path class="cls-14" d="M553.88,668.47H542.94V649.42h10.94v-22.7h23.36v22.7h20.54v19.05H577.24v44.41c0,6.13,2.49,8.78,9.77,8.78h10.77v19.55H583.21c-17.57,0-29.33-7.45-29.33-28.5Z" transform="translate(0 0)"/><path class="cls-14" d="M612,624.9c0-7.62,6-13.59,14.25-13.59,8.12,0,14.25,6,14.25,13.59s-6.13,13.59-14.25,13.59C618,638.49,612,632.52,612,624.9Zm2.49,24.52h23.19v91.79H614.52Z" transform="translate(0 0)"/><path class="cls-14" d="M701.34,742.7c-26.51,0-46.55-18.55-46.55-47.38,0-29,20.71-47.39,47.22-47.39s47.21,18.39,47.21,47.39C749.22,724.15,728,742.7,701.34,742.7Zm0-20.21c12.26,0,24-9,24-27.17,0-18.4-11.44-27.18-23.7-27.18s-23.36,8.78-23.36,27.18C678.31,713.54,688.92,722.49,701.34,722.49Z" transform="translate(0 0)"/><path class="cls-14" d="M830.58,690.51c0-14.75-8.12-22.7-20.38-22.7-12.59,0-20.71,8-20.71,22.7v50.7h-23.2V649.42h23.2v11.43c6-7.78,15.9-12.76,27.67-12.76,21.37,0,36.61,13.92,36.61,39.27v53.85H830.58Z" transform="translate(0 0)"/><path class="cls-15" d="M298.55,524.6a19.65,19.65,0,0,0-19.66,19.65v24.57H146.23a44.22,44.22,0,0,1,44.22-44.22h22.11V259.27H146.23a44.22,44.22,0,0,1,44.22-44.22H323.11a44.22,44.22,0,0,1-44.22,44.22H256.78V524.6Z" transform="translate(0 0)"/><path class="cls-15" d="M686.42,215.05a19.65,19.65,0,0,0-19.66,19.65v24.57H636.94a19.69,19.69,0,0,0-19.06,14.89L599.5,347.71l-11.06,44.22L546.09,561.4a9.78,9.78,0,0,1-9.53,7.42H507.67a9.79,9.79,0,0,1-9.54-7.42l-59.7-238.84a4.91,4.91,0,0,0-9.53,0L371.07,553.93A19.69,19.69,0,0,1,352,568.82H289V544.25a19.65,19.65,0,0,1,19.66-19.65h10.17a19.69,19.69,0,0,0,19.06-14.89l71.79-287.24a9.78,9.78,0,0,1,9.53-7.42h28.89a9.78,9.78,0,0,1,9.53,7.42l32.24,129L500,391.93l17.34,69.38a4.92,4.92,0,0,0,9.54,0l17.34-69.38,11.06-44.22,29.43-117.77a19.69,19.69,0,0,1,19.06-14.89Z" transform="translate(0 0)"/><path class="cls-15" d="M853.77,215.05a44.22,44.22,0,0,1-44.22,44.22H765.33v289.9a19.64,19.64,0,0,1-19.65,19.65h-113a44.22,44.22,0,0,1,44.22-44.22h24.56A19.66,19.66,0,0,0,721.11,505V259.27H676.89V234.7a19.64,19.64,0,0,1,19.65-19.65Z" transform="translate(0 0)"/><path class="cls-15" d="M146.61,625.56H169.8V741.21H146.61Z" transform="translate(0 0)"/><path class="cls-15" d="M257,690.51c0-14.75-8.12-22.7-20.38-22.7-12.59,0-20.71,8-20.71,22.7v50.7h-23.2V649.42h23.2v11.43c6-7.78,15.9-12.76,27.67-12.76,21.37,0,36.61,13.92,36.61,39.27v53.85H257Z" transform="translate(0 0)"/><path class="cls-15" d="M325.39,649.42V756.29C325.39,777.5,314,785,296.23,785H286V765.24h6.62c7.13,0,9.61-2.65,9.61-8.79v-107ZM299.54,624.9c0-7.62,6-13.59,14.42-13.59,8.12,0,14.08,6,14.08,13.59s-6,13.59-14.08,13.59C305.51,638.49,299.54,632.52,299.54,624.9Z" transform="translate(0 0)"/><path class="cls-15" d="M388.35,742.7c-26.67,0-46.06-18.55-46.06-47.38,0-29,18.89-47.39,46.06-47.39,26.51,0,45.23,18.06,45.23,45.4a53.81,53.81,0,0,1-.66,8.94h-67.1c1.16,13.59,10.44,21.21,22,21.21,9.94,0,15.4-5,18.38-11.1h25C426.29,729.28,411.05,742.7,388.35,742.7ZM366,686.7h43.57c-.33-12.1-9.94-19.72-21.87-19.72C376.59,667,367.81,674.11,366,686.7Z" transform="translate(0 0)"/><path class="cls-15" d="M489.92,647.93c22.87,0,38.28,11.93,43.24,32.47h-25c-2.66-7.78-8.78-12.75-18.4-12.75-12.92,0-21.53,9.77-21.53,27.67s8.61,27.5,21.53,27.5c9.62,0,15.58-4.31,18.4-12.59h25c-5,19.55-20.37,32.47-43.24,32.47-26.51,0-45.4-18.55-45.4-47.38S463.41,647.93,489.92,647.93Z" transform="translate(0 0)"/><path class="cls-15" d="M553.88,668.47H542.94V649.42h10.94v-22.7h23.36v22.7h20.54v19.05H577.24v44.41c0,6.13,2.49,8.78,9.77,8.78h10.77v19.55H583.21c-17.57,0-29.33-7.45-29.33-28.5Z" transform="translate(0 0)"/><path class="cls-15" d="M612,624.9c0-7.62,6-13.59,14.25-13.59,8.12,0,14.25,6,14.25,13.59s-6.13,13.59-14.25,13.59C618,638.49,612,632.52,612,624.9Zm2.49,24.52h23.19v91.79H614.52Z" transform="translate(0 0)"/><path class="cls-15" d="M701.34,742.7c-26.51,0-46.55-18.55-46.55-47.38,0-29,20.71-47.39,47.22-47.39s47.21,18.39,47.21,47.39C749.22,724.15,728,742.7,701.34,742.7Zm0-20.21c12.26,0,24-9,24-27.17,0-18.4-11.44-27.18-23.7-27.18s-23.36,8.78-23.36,27.18C678.31,713.54,688.92,722.49,701.34,722.49Z" transform="translate(0 0)"/><path class="cls-15" d="M830.58,690.51c0-14.75-8.12-22.7-20.38-22.7-12.59,0-20.71,8-20.71,22.7v50.7h-23.2V649.42h23.2v11.43c6-7.78,15.9-12.76,27.67-12.76,21.37,0,36.61,13.92,36.61,39.27v53.85H830.58Z" transform="translate(0 0)"/><path class="cls-15" d="M146.61,625.56H169.8V741.21H146.61Z" transform="translate(0 0)"/><path class="cls-15" d="M257,690.51c0-14.75-8.12-22.7-20.38-22.7-12.59,0-20.71,8-20.71,22.7v50.7h-23.2V649.42h23.2v11.43c6-7.78,15.9-12.76,27.67-12.76,21.37,0,36.61,13.92,36.61,39.27v53.85H257Z" transform="translate(0 0)"/><path class="cls-15" d="M325.39,649.42V756.29C325.39,777.5,314,785,296.23,785H286V765.24h6.62c7.13,0,9.61-2.65,9.61-8.79v-107ZM299.54,624.9c0-7.62,6-13.59,14.42-13.59,8.12,0,14.08,6,14.08,13.59s-6,13.59-14.08,13.59C305.51,638.49,299.54,632.52,299.54,624.9Z" transform="translate(0 0)"/><path class="cls-15" d="M388.35,742.7c-26.67,0-46.06-18.55-46.06-47.38,0-29,18.89-47.39,46.06-47.39,26.51,0,45.23,18.06,45.23,45.4a53.81,53.81,0,0,1-.66,8.94h-67.1c1.16,13.59,10.44,21.21,22,21.21,9.94,0,15.4-5,18.38-11.1h25C426.29,729.28,411.05,742.7,388.35,742.7ZM366,686.7h43.57c-.33-12.1-9.94-19.72-21.87-19.72C376.59,667,367.81,674.11,366,686.7Z" transform="translate(0 0)"/><path class="cls-15" d="M489.92,647.93c22.87,0,38.28,11.93,43.24,32.47h-25c-2.66-7.78-8.78-12.75-18.4-12.75-12.92,0-21.53,9.77-21.53,27.67s8.61,27.5,21.53,27.5c9.62,0,15.58-4.31,18.4-12.59h25c-5,19.55-20.37,32.47-43.24,32.47-26.51,0-45.4-18.55-45.4-47.38S463.41,647.93,489.92,647.93Z" transform="translate(0 0)"/><path class="cls-15" d="M553.88,668.47H542.94V649.42h10.94v-22.7h23.36v22.7h20.54v19.05H577.24v44.41c0,6.13,2.49,8.78,9.77,8.78h10.77v19.55H583.21c-17.57,0-29.33-7.45-29.33-28.5Z" transform="translate(0 0)"/><path class="cls-15" d="M612,624.9c0-7.62,6-13.59,14.25-13.59,8.12,0,14.25,6,14.25,13.59s-6.13,13.59-14.25,13.59C618,638.49,612,632.52,612,624.9Zm2.49,24.52h23.19v91.79H614.52Z" transform="translate(0 0)"/><path class="cls-15" d="M701.34,742.7c-26.51,0-46.55-18.55-46.55-47.38,0-29,20.71-47.39,47.22-47.39s47.21,18.39,47.21,47.39C749.22,724.15,728,742.7,701.34,742.7Zm0-20.21c12.26,0,24-9,24-27.17,0-18.4-11.44-27.18-23.7-27.18s-23.36,8.78-23.36,27.18C678.31,713.54,688.92,722.49,701.34,722.49Z" transform="translate(0 0)"/><path class="cls-15" d="M830.58,690.51c0-14.75-8.12-22.7-20.38-22.7-12.59,0-20.71,8-20.71,22.7v50.7h-23.2V649.42h23.2v11.43c6-7.78,15.9-12.76,27.67-12.76,21.37,0,36.61,13.92,36.61,39.27v53.85H830.58Z" transform="translate(0 0)"/><path class="cls-15" d="M146.61,625.56H169.8V741.21H146.61Z" transform="translate(0 0)"/><path class="cls-15" d="M257,690.51c0-14.75-8.12-22.7-20.38-22.7-12.59,0-20.71,8-20.71,22.7v50.7h-23.2V649.42h23.2v11.43c6-7.78,15.9-12.76,27.67-12.76,21.37,0,36.61,13.92,36.61,39.27v53.85H257Z" transform="translate(0 0)"/><path class="cls-15" d="M325.39,649.42V756.29C325.39,777.5,314,785,296.23,785H286V765.24h6.62c7.13,0,9.61-2.65,9.61-8.79v-107ZM299.54,624.9c0-7.62,6-13.59,14.42-13.59,8.12,0,14.08,6,14.08,13.59s-6,13.59-14.08,13.59C305.51,638.49,299.54,632.52,299.54,624.9Z" transform="translate(0 0)"/><path class="cls-15" d="M388.35,742.7c-26.67,0-46.06-18.55-46.06-47.38,0-29,18.89-47.39,46.06-47.39,26.51,0,45.23,18.06,45.23,45.4a53.81,53.81,0,0,1-.66,8.94h-67.1c1.16,13.59,10.44,21.21,22,21.21,9.94,0,15.4-5,18.38-11.1h25C426.29,729.28,411.05,742.7,388.35,742.7ZM366,686.7h43.57c-.33-12.1-9.94-19.72-21.87-19.72C376.59,667,367.81,674.11,366,686.7Z" transform="translate(0 0)"/><path class="cls-15" d="M489.92,647.93c22.87,0,38.28,11.93,43.24,32.47h-25c-2.66-7.78-8.78-12.75-18.4-12.75-12.92,0-21.53,9.77-21.53,27.67s8.61,27.5,21.53,27.5c9.62,0,15.58-4.31,18.4-12.59h25c-5,19.55-20.37,32.47-43.24,32.47-26.51,0-45.4-18.55-45.4-47.38S463.41,647.93,489.92,647.93Z" transform="translate(0 0)"/><path class="cls-15" d="M553.88,668.47H542.94V649.42h10.94v-22.7h23.36v22.7h20.54v19.05H577.24v44.41c0,6.13,2.49,8.78,9.77,8.78h10.77v19.55H583.21c-17.57,0-29.33-7.45-29.33-28.5Z" transform="translate(0 0)"/><path class="cls-15" d="M612,624.9c0-7.62,6-13.59,14.25-13.59,8.12,0,14.25,6,14.25,13.59s-6.13,13.59-14.25,13.59C618,638.49,612,632.52,612,624.9Zm2.49,24.52h23.19v91.79H614.52Z" transform="translate(0 0)"/><path class="cls-15" d="M701.34,742.7c-26.51,0-46.55-18.55-46.55-47.38,0-29,20.71-47.39,47.22-47.39s47.21,18.39,47.21,47.39C749.22,724.15,728,742.7,701.34,742.7Zm0-20.21c12.26,0,24-9,24-27.17,0-18.4-11.44-27.18-23.7-27.18s-23.36,8.78-23.36,27.18C678.31,713.54,688.92,722.49,701.34,722.49Z" transform="translate(0 0)"/><path class="cls-15" d="M830.58,690.51c0-14.75-8.12-22.7-20.38-22.7-12.59,0-20.71,8-20.71,22.7v50.7h-23.2V649.42h23.2v11.43c6-7.78,15.9-12.76,27.67-12.76,21.37,0,36.61,13.92,36.61,39.27v53.85H830.58Z" transform="translate(0 0)"/></svg>